<svg width="20" height="20" viewBox="0 0 20 20" fill="none" xmlns="http://www.w3.org/2000/svg">
<path d="M6 18H3C2.74 18 2.48 17.89 2.29 17.71C2.11 17.52 2 17.26 2 17V14C2 13.45 1.55 13 1 13C0.45 13 0 13.45 0 14V17C0 17.8 0.31 18.55 0.88 19.12C1.45 19.69 2.2 20 3 20H6C6.55 20 7 19.55 7 19C7 18.45 6.55 18 6 18Z" fill="#DA291C"/>
<path d="M19.12 0.88C18.55 0.31 17.8 0 17 0H14C13.45 0 13 0.45 13 1C13 1.55 13.45 2 14 2H17C17.26 2 17.52 2.11 17.71 2.29C17.89 2.48 18 2.74 18 3V6C18 6.55 18.45 7 19 7C19.55 7 20 6.55 20 6V3C20 2.2 19.69 1.45 19.12 0.88Z" fill="#DA291C"/>
<path d="M19 13C18.45 13 18 13.45 18 14V17C18 17.26 17.89 17.52 17.71 17.71C17.53 17.9 17.26 18 17 18H14C13.45 18 13 18.45 13 19C13 19.55 13.45 20 14 20H17C17.8 20 18.55 19.69 19.12 19.12C19.69 18.55 20 17.8 20 17V14C20 13.45 19.55 13 19 13Z" fill="#DA291C"/>
<path d="M6 0H3C2.2 0 1.45 0.31 0.88 0.88C0.31 1.45 0 2.2 0 3V6C0 6.55 0.45 7 1 7C1.55 7 2 6.55 2 6V3C2 2.74 2.11 2.48 2.29 2.29C2.48 2.11 2.74 2 3 2H6C6.55 2 7 1.55 7 1C7 0.45 6.55 0 6 0Z" fill="#DA291C"/>
<path d="M16 5H15.1429V15H16V5Z" fill="#DA291C"/>
<path d="M14.2857 5H12.5714V15H14.2857V5Z" fill="#DA291C"/>
<path d="M11.7143 5H10V15H11.7143V5Z" fill="#DA291C"/>
<path d="M9.14286 5H8.28571V15H9.14286V5Z" fill="#DA291C"/>
<path d="M7.42857 5H6.57143V15H7.42857V5Z" fill="#DA291C"/>
<path d="M5.71429 5H4V15H5.71429V5Z" fill="#DA291C"/>
</svg>
